<svg width="512" height="512" viewBox="0 0 512 512" fill="none" xmlns="http://www.w3.org/2000/svg">
<rect width="512" height="512" fill="#111827"/>
<path d="M178.7 361H150.5V223C150.5 199.4 156.8 181 169.4 167.8C182.2 154.6 199.1 148 220.1 148C242.5 148 259.8 154.4 272 167.2C284.4 180 290.6 196.3 290.6 216.1C290.6 228.5 288.3 239.3 283.7 248.5C279.3 257.7 273.3 264.8 265.7 269.8C258.1 274.8 250 278.5 241.4 280.9C232.8 283.3 223.8 284.5 214.4 284.5H191.9V258.1H217.7C231.1 258.1 241.6 254.1 249.2 246.1C257 237.9 260.9 227.7 260.9 215.5C260.9 203.5 257.3 193.7 250.1 186.1C243.1 178.3 233 174.4 219.8 174.4C207 174.4 196.9 178.8 189.5 187.6C182.3 196.2 178.7 207.6 178.7 221.8V361ZM358.215 361H331.815V242.2H307.215L319.215 217H358.215V361ZM330.615 187C328.015 183.6 326.715 179.9 326.715 175.9C326.715 171.9 328.015 168.3 330.615 165.1C333.215 161.7 337.215 160 342.615 160C348.015 160 352.015 161.7 354.615 165.1C357.215 168.3 358.515 171.9 358.515 175.9C358.515 179.9 357.215 183.6 354.615 187C352.015 190.2 348.015 191.8 342.615 191.8C337.215 191.8 333.215 190.2 330.615 187Z" fill="white"/>
</svg>
